<svg id="Layer_1" data-name="Layer 1" xmlns="http://www.w3.org/2000/svg" xmlns:xlink="http://www.w3.org/1999/xlink" viewBox="0 0 1920 1080"><defs><style>.cls-1{fill:url(#radial-gradient);}.cls-2{fill:#1d1d1b;}</style><radialGradient id="radial-gradient" cx="1517.88" cy="540.61" r="369.12" gradientUnits="userSpaceOnUse"><stop offset="0" stop-color="#f39200"/><stop offset="0.38" stop-color="#ffce44"/><stop offset="1" stop-color="#e4032e"/></radialGradient></defs><title>logo 2</title><path class="cls-1" d="M1885.1,566.59c-8-6.41-17.63-11.4-26.83-15.81-14.21-6.67-28.93-12.27-44.7-13.4-11.84-.84-23.86,1.31-35.09,5.1-23.66,7.91-44.13,23.56-64.65,37.36-23.83,16-48.58,29.84-77.67,32.79a92.67,92.67,0,0,1-38.18-4c0-.05-.09-.05-.16-.13a134,134,0,0,1-14.58-14c-10.61-11.57-19.66-24.5-28.44-37.42a13.63,13.63,0,0,0-3.31-2.92c14.11,5.72,28.66,10.14,44.13,12.19a245.05,245.05,0,0,0,65.17,0c16.05-2.33,30.66-8.52,44.07-17.66,23.57-16.09,38.71-39.42,52.21-64.13,11.95-21.87,23-44.83,40.19-63.15A82.27,82.27,0,0,1,1836,397.56a72.65,72.65,0,0,1,7.3-1.62c-.79.13,4.42-.66,3.3-.53,0,0,5.78-.36,2.65-.21,1.39-.1,16.91-1.28,8.21-2.95-10-2-20.86-1.93-31-1.54-15.67.65-31.26,2.49-45.8,8.83-10.9,4.8-20.56,12.27-28.82,20.79-17.34,18.06-28.33,41.44-40.17,63.22-13.79,25.3-29.43,49-53.85,65.11a94.15,94.15,0,0,1-35.59,14.19.8.8,0,0,0-.33-.08,127.53,127.53,0,0,1-19.35-5.62c-14.7-5.33-28.67-12.62-42.39-20a13.7,13.7,0,0,0-4.24-1.07c15.13-1.49,30-4.34,44.68-9.72a244,244,0,0,0,57.82-30.2c13.19-9.54,23.3-21.79,30.95-36.11,13.55-25.28,16.28-53,16.91-81.14.59-25-.17-50.45,6.69-74.7a88.65,88.65,0,0,1,13.28-27.66,85.17,85.17,0,0,1,10.18-11.47,65.83,65.83,0,0,1,5.72-4.83c-.65.48,3.63-2.64,2.67-2,0,0,5-3,2.27-1.46,1.21-.72,14.42-9,5.94-6.41-9.83,2.88-19.42,7.95-28.26,13-13.59,7.87-26.61,16.75-36.57,29.1-7.49,9.26-12.62,20.43-16,31.82-7.12,24-6.16,49.86-6.69,74.7-.6,28.84-3.58,57.13-17.87,82.81a94.22,94.22,0,0,1-25.1,29.1,2.71,2.71,0,0,0-.29.08,133.72,133.72,0,0,1-19.75,3.95c-15.48,2.11-31.19,2.16-46.77,2a12.7,12.7,0,0,0-4.28,1c12.74-8.34,24.7-17.78,35.24-29.35a246.8,246.8,0,0,0,37.4-53.68c7.33-14.53,10.66-30.15,10.9-46.4.42-28.71-9.9-54.55-22.24-79.86-10.94-22.4-23.31-44.65-28.34-69.34a87.88,87.88,0,0,1-.92-30.69,85.49,85.49,0,0,1,3.76-14.89c.83-2.38,1.79-4.67,2.84-6.95-.31.7,2-4,1.48-3,0,0,3-5,1.36-2.34.74-1.16,8.67-14.62,2.28-8.42-7.33,7.16-13.54,16.07-19,24.69-8.48,13.27-15.93,27.22-19.1,42.81-2.38,11.68-1.83,24,.4,35.64,4.72,24.66,17.43,47.07,28.39,69.34,12.66,25.9,23,52.37,22.1,81.76a93.24,93.24,0,0,1-9.55,38.08,135.62,135.62,0,0,1-15.27,12.32c-12.76,9.06-26.68,16.42-40.61,23.45a12.7,12.7,0,0,0-3.24,2.85c7.45-13.29,13.72-27.18,17.74-42.32a247.13,247.13,0,0,0,8.54-65c-.15-16.3-4.37-31.64-11.62-46.24-12.78-25.61-33.79-43.77-56.36-60.46-20-14.81-41.16-28.79-57-48.35a88.88,88.88,0,0,1-14.9-26.81,84.79,84.79,0,0,1-3.49-15c-.35-2.47-.55-5-.65-7.47,0,.77,0-4.54-.07-3.34,0,0,.42-5.85.13-2.74.13-1.34,1-17-1.81-8.55-3.26,9.75-4.68,20.55-5.6,30.74-1.39,15.75-1.64,31.57,2.71,46.86,3.25,11.52,9.35,22.1,16.73,31.43,15.48,19.68,37.06,33.71,57,48.39,23.13,17,44.48,35.74,57.15,62.23a94.11,94.11,0,0,1,9.28,37.46l-.07.23a143.09,143.09,0,0,1-8.1,18.58c-7.17,13.93-16.17,26.9-25.26,39.59a13.66,13.66,0,0,0-1.62,4.13c.54-15.29-.3-30.56-3.66-45.83A246.44,246.44,0,0,0,1496.1,390c-7.6-14.42-18.39-26.1-31.5-35.64-23.14-16.8-50.1-23.17-77.77-27.48-24.52-3.82-49.72-6.44-72.75-16.47a83.08,83.08,0,0,1-35.46-28.48c-1.47-2.06-2.78-4.18-4-6.37.42.7-2.1-3.92-1.6-2.95,0,0-2.3-5.31-1.12-2.42-.55-1.31-6.94-15.55-5.55-6.75,1.6,10.14,5.29,20.37,9.18,29.87,5.94,14.6,13,28.74,23.86,40.28,8.21,8.7,18.48,15.29,29.27,20.17,22.76,10.24,48.37,12.65,72.75,16.43,28.36,4.34,55.84,11.08,79.27,28.66a94.53,94.53,0,0,1,25.4,28.87,2.68,2.68,0,0,0,0,.31,139.14,139.14,0,0,1,1.33,20.2c0,15.7-2,31.39-4.22,46.91a13.87,13.87,0,0,0,.48,4.36c-6.57-13.78-14.29-27-24.31-39a244.76,244.76,0,0,0-48-44.34c-13.38-9.23-28.31-14.58-44.3-17-28.22-4.18-55.08,2.72-81.6,11.7-23.52,8-47.05,17.4-72.06,19.19A86.26,86.26,0,0,1,1203,427a82,82,0,0,1-14.22-5.72,73.08,73.08,0,0,1-6.49-3.77c.68.47-3.67-2.51-2.77-1.85,0,0-4.49-3.65-2.1-1.64-1.07-.92-13.28-10.58-8-3.42,6.07,8.31,14,15.65,21.84,22.25,12,10.19,24.71,19.45,39.65,24.66,11.26,3.9,23.41,4.95,35.22,4.29,24.91-1.49,48.7-11.26,72.07-19.2,27.18-9.28,54.62-16.09,83.46-11.39a93,93,0,0,1,35.86,13.93l.11.13a136,136,0,0,1,10.44,17.34c7.26,13.91,12.65,28.77,17.79,43.58a12.69,12.69,0,0,0,2.43,3.64c-12.14-9.19-25-17.27-39.44-23.27A244.71,244.71,0,0,0,1386,469.45c-16.1-2-31.81.23-47.1,5.54-26.93,9.42-47.61,28-67,48.26-17.22,18-33.77,37.29-55.14,50.52a86.84,86.84,0,0,1-28.35,11.29,81.81,81.81,0,0,1-15.23,1.56,70.85,70.85,0,0,1-7.47-.33c.78,0-4.44-.52-3.32-.36,0,0-5.66-1.16-2.6-.47-1.38-.3-16.66-3.21-8.7.66,9.18,4.59,19.61,7.36,29.58,9.62,15.29,3.46,30.85,5.78,46.49,3.46,11.77-1.79,23-6.47,33.18-12.54,21.44-12.88,38.08-32.57,55.16-50.5,19.84-20.84,41-39.65,68.82-48.84a93.38,93.38,0,0,1,38-4.36l.28.15a129.28,129.28,0,0,1,17.26,10.5c12.82,9,24.4,19.65,35.76,30.41a13.66,13.66,0,0,0,3.83,2.1c-15-2.51-30.14-3.7-45.67-2.34a242.84,242.84,0,0,0-63.64,14.09c-15.21,5.77-28.11,14.94-39.24,26.77-19.61,20.83-29.38,46.89-37.31,73.93-7,24-12.85,48.76-25.73,70.39a87.58,87.58,0,0,1-19.95,23.17,81.32,81.32,0,0,1-12.81,8.44,74.32,74.32,0,0,1-6.79,3.21,33.27,33.27,0,0,0-3.12,1.23s-5.55,1.57-2.53.8c-1.35.34-16.26,4.88-7.39,4.61,10.23-.26,20.8-2.59,30.63-5.23,15.17-4,30-9.19,42.83-18.5,9.67-7,17.45-16.39,23.71-26.54,13.09-21.37,18.83-46.55,25.73-70.38,8-27.74,18.25-54.28,38.67-75.29a93,93,0,0,1,31.89-21.58h.16a131.55,131.55,0,0,1,20.12,1.36c15.49,2,30.67,6.08,45.68,10.34a12.81,12.81,0,0,0,4.38.1c-14.46,4.72-28.44,10.72-41.59,19.14a245.69,245.69,0,0,0-50,42c-10.84,12.13-18.09,26.33-22.5,42-7.82,27.58-4.55,55.25.83,82.89,4.79,24.51,11,49.21,9.46,74.41a88.37,88.37,0,0,1-7,29.82,85.23,85.23,0,0,1-7.49,13.42,65.78,65.78,0,0,1-4.58,6c.53-.56-3,3.39-2.18,2.56,0,0-4.22,4-1.91,1.88-1,.93-12.17,11.88-4.43,7.54,9-5,17.25-12,24.82-18.86,11.59-10.6,22.42-22.07,29.49-36.31,5.3-10.72,7.95-22.69,8.82-34.54,1.81-25.05-4.68-50.07-9.46-74.42-5.57-28.3-8.72-56.59-.24-84.73a95,95,0,0,1,18.3-33.87l.22-.1a129.09,129.09,0,0,1,18.46-8.19c14.68-5.39,30-8.82,45.29-12a13.26,13.26,0,0,0,3.88-1.93c-10.66,10.9-20.3,22.66-28.09,36.25a246.75,246.75,0,0,0-25,60.48c-4.06,15.81-4,31.77-.74,47.75,5.72,28.07,21.32,51.11,38.78,73.13,15.49,19.52,32.31,38.54,42.53,61.56a87.68,87.68,0,0,1,7.43,29.81,83.67,83.67,0,0,1-.47,15.34c-.31,2.56-.75,5-1.29,7.44.15-.8-1.12,4.34-.81,3.25,0,0-1.9,5.54-.83,2.59-.46,1.33-5.33,16.12-.44,8.73,5.67-8.55,9.81-18.61,13.33-28.23,5.45-14.83,9.75-30,9.5-45.9-.18-12-3.31-23.87-8-34.77-9.85-23.07-27.09-42.24-42.52-61.61-17.93-22.51-33.69-46.16-39.11-75.08a94.81,94.81,0,0,1,.71-38.51c.07-.1.08-.15.16-.26a135.12,135.12,0,0,1,12.63-15.81c10.55-11.55,22.54-21.76,34.65-31.69a11.78,11.78,0,0,0,2.55-3.51c-4.41,14.62-7.55,29.56-8.25,45.21a247.66,247.66,0,0,0,5.52,65.31c3.65,15.91,11,30,21.23,42.63,18,22.28,42.39,35.48,68,46.89,22.7,10.14,46.36,19.25,66,34.93a87.21,87.21,0,0,1,20.27,23,86.22,86.22,0,0,1,6.61,13.83,71.17,71.17,0,0,1,2.23,7.18c-.21-.76,1,4.39.83,3.29,0,0,.81,5.77.43,2.6.16,1.43,2.67,16.86,3.58,8,1.1-10.19.18-21.06-1.11-31.25-2-15.63-5.14-31.12-12.65-45.12-5.66-10.55-13.9-19.57-23.07-27.09-19.32-15.86-43.41-24.87-66-34.9-26.23-11.68-51.08-25.32-69.1-48.44a93.52,93.52,0,0,1-17.09-34.56,1.05,1.05,0,0,0,0-.23,136.5,136.5,0,0,1,4-19.92c4-15.17,10-29.76,16.19-44.16a12.9,12.9,0,0,0,.67-4.37c2.79,15,6.84,29.76,13.41,44a245.28,245.28,0,0,0,34.87,55.35c10.53,12.44,23.58,21.5,38.41,27.94,26.15,11.49,53.88,11.83,81.82,10.08,24.77-1.52,49.93-4.44,74.53.34a85.87,85.87,0,0,1,28.52,11,80.58,80.58,0,0,1,12.25,9.21,65.14,65.14,0,0,1,5.27,5.32,32.33,32.33,0,0,0,2.21,2.51s3.4,4.73,1.61,2.15c.79,1.2,10.1,13.73,6.87,5.42-3.71-9.59-9.53-18.78-15.34-27.22-8.94-13-18.86-25.22-31.94-34.15-9.83-6.77-21.31-10.9-32.89-13.37-24.44-5.1-49.91-1.88-74.57-.29-28.62,1.83-56.9,1.21-83.52-10.91a92.65,92.65,0,0,1-31-22.64c0-.13-.06-.18-.1-.3a134.39,134.39,0,0,1-5.64-19.47c-3.4-15.34-4.78-31.07-5.9-46.72-.24-3-2.88-7.11-4.24-9.68-.53-1-1.16-1.95-1.71-2.93,11.5,14.48,24.12,27.85,39.57,38.72a244,244,0,0,0,57.8,30.25c15.31,5.44,31.08,6.69,47.16,4.79,28.31-3.34,52.46-17,75.77-32.61,20.66-13.89,41-29.15,64.64-37.37a85.58,85.58,0,0,1,30.13-4.95,84.44,84.44,0,0,1,15.18,1.8c2.45.52,4.85,1.18,7.23,1.93-.77-.21,4.2,1.49,3.14,1.1,0-.05,5.29,2.38,2.47,1C1877.76,565.93,1892.05,572.13,1885.1,566.59Z"/><path class="cls-2" d="M122.71,720.27q0,12.07-8.76,30H51.11a2.57,2.57,0,0,1-1.22-.32,2.42,2.42,0,0,0-1-.31c-2.44-.14-5.34-1.64-8.67-4.49s-5.2-5.65-5.61-8.43a21.85,21.85,0,0,1-.2-4.17q0-6.45,2.86-16.88,3.26-11.25,6.32-12.92l.81.62c0,1.54-.24,4.41-.71,8.65S43,718.6,43,719a16.2,16.2,0,0,0,1,6.46c.67,1.53,2.62,3.2,5.81,5s5.68,2.71,7.45,2.71h54a5.06,5.06,0,0,0,1.22-2.49q0-3.13-6.93-14.59l8.37-15a30.66,30.66,0,0,1,5.91,8.86Q122.7,715.89,122.71,720.27ZM98.65,682.35a57,57,0,0,1-8.91,9.86L78.27,686a21.46,21.46,0,0,0-5.93,5.9,90.45,90.45,0,0,1-12.67-6.46q7.55-9.37,9.18-9.37.61,0,5.1,2.92t5.1,2.91c.27,0,1.28-.76,3.06-2.29a53.87,53.87,0,0,1,4.48-3.55Z"/><path class="cls-2" d="M165.14,750.69H142.09L135,673.43c0-.56.74-1.74,2.24-3.56a123.68,123.68,0,0,1,9.39-10.64q.61,5,1.42,14.88,3.68,40.86,5.93,56.56c.13.7.74,1.2,1.83,1.46a23.94,23.94,0,0,1,2.85,1.16,8.12,8.12,0,0,0,3.06.94h3.47Z"/><path class="cls-2" d="M223.07,726l-3.88,24.67h-60V734.23h53.65a4.42,4.42,0,0,0,.41-1.91,35.3,35.3,0,0,0-1.64-9c-1.22-4.54-2.44-7-3.66-7.45q-6.73,9.58-17.35,9.58a22.44,22.44,0,0,1-10.2-2.71q-6.71-3.74-6.73-9.37,0-7.92,10.4-19t18.57-11q7.13,0,13.45,14a86.43,86.43,0,0,1,5.1,14.84A94.14,94.14,0,0,1,223.07,726Zm-5.91-56.68q-8.58,10.51-10.4,10.5a53,53,0,0,1-6.23-3c-3.87-2-6-3-6.42-3q-1,0-6.73,6-5.51-.82-13.67-7a69.8,69.8,0,0,1,9.18-10.71q10,6.89,12,6.88.61,0,3.47-2.63c2.72-2.42,4.29-3.84,4.69-4.25ZM204.3,708.4a27.4,27.4,0,0,0-5.4-6.68c-2.38-2.21-4.39-3.33-6-3.33q-4.08,0-8,5.84,8.56,5.63,10.81,5.62Z"/><path class="cls-2" d="M288.33,734.23q0,16.46-8.15,33.34-9.59,19.57-23.46,19.58-6.31,0-19.48-3.65t-15.81-5.94c0-1.67,1-2.49,2.86-2.49q.4,0,7.74,1.45t8,1.46q8.35,0,23.87-12.08,17.13-13.12,17.13-24a16,16,0,0,0-1-5.63h-.41q-2.86,8.47-6.64,11.42c-2.52,2-5.88,3-10.1,3-4.76,0-8-1.48-9.79-4.4q-1.83-3.36-1.83-10.89v-5q.61-4.6,7.13-14.65,7.76-11.92,14.08-11.93c2.72,0,5.58,2.16,8.57,6.46a46.18,46.18,0,0,1,4.29,8.55c.41,1.11.94,2.85,1.63,5.2A41.8,41.8,0,0,1,288.33,734.23Zm-13.45-2.75a9.58,9.58,0,0,0-2.86-7.21,8,8,0,0,0-5.3-2.12,13.73,13.73,0,0,0-5.3,1.69c-2.72,1.42-4.08,3.12-4.08,5.1q0,2.12,4.69,3.61a18.28,18.28,0,0,0,5.3,1.06A17.37,17.37,0,0,0,274.88,731.48Z"/><path class="cls-2" d="M364,750.69H350.13c-1.22,0-2.65-1-4.29-3.13q-1.41,8.76-9.58,21-10.21,15.62-20.19,15.62-5.51,0-17.65-5.52t-14.79-8.65v-1.45a1.59,1.59,0,0,1,1.44-.62,63.39,63.39,0,0,1,6.42,2.49c4,1.67,7.11,2.51,9.28,2.51q8.15,0,22-11.67t13.87-17.92q0-4.37-10.2-16l8.76-14.8q12.65,16.67,24.28,21.26H364Z"/><path class="cls-2" d="M465.17,750.69H443.35l-1.63-13.14H419.89a10.67,10.67,0,0,0-4.07,1.49q-5.93,3.4-17.55,10a15.1,15.1,0,0,1-5.51,1.69H357.88V734.23h37.74a23.3,23.3,0,0,0,4.07-.85A55.78,55.78,0,0,0,413,727.59q-1.43-.65-15.3-5.58-6.52-2.37-8.77-2.37a17.26,17.26,0,0,0-7.95,1.88l-5.51,3.13a40.28,40.28,0,0,1,5.1-10.43q7.13-9.58,13-10.42h4.08a33.56,33.56,0,0,1,6.12.43,35.58,35.58,0,0,1,4.29,1.48q24.26,13.52,49.57,15-1.22,3-4.08,13.52h11.62Z"/><path class="cls-2" d="M508.83,743.81q0,2.71-2.14,8.44a32.78,32.78,0,0,1-3.78,7.81l-6.52-5.71q-4.69-3.66-8-3.66H458V734.23h21a10.79,10.79,0,0,0,1-4.4,63.34,63.34,0,0,0-1.44-10.48q-1.43-10.05-6.12-29.57c0-.28-.85-1.08-2.54-2.4s-2.56-2.2-2.56-2.62q0-1,4.39-9.12c2.92-5.38,4.92-8.42,6-9.13h1.42a29.46,29.46,0,0,0,1.64,6.68,54.43,54.43,0,0,0,16.72,11.88,54.72,54.72,0,0,0-4.49,7.91c-1.91,3.61-3.8,6.12-5.71,7.5.13,1,.34,6,.61,15q.21,8.74,2.45,12.92,1.22,2.29,10.2,7.49Q508.82,740.49,508.83,743.81Z"/><path class="cls-2" d="M543.51,719.58q0,18.37-8.37,31.12l-7.54-64.55q0-1.66,5.1-10.22,4.48-7.31,6.73-10.24Z"/><path class="cls-2" d="M605.5,734.23q0,16.46-8.15,33.34-9.59,19.57-23.46,19.58-6.31,0-19.48-3.65t-15.81-5.94c0-1.67,1-2.49,2.86-2.49q.4,0,7.74,1.45t8,1.46q8.35,0,23.87-12.08,17.13-13.12,17.13-24a16,16,0,0,0-1-5.63h-.41q-2.86,8.47-6.64,11.42c-2.52,2-5.88,3-10.1,3-4.76,0-8-1.48-9.79-4.4q-1.83-3.36-1.83-10.89v-5q.61-4.6,7.13-14.65,7.76-11.92,14.08-11.93c2.72,0,5.58,2.16,8.57,6.46a46.18,46.18,0,0,1,4.29,8.55c.41,1.11.94,2.85,1.63,5.2A41.8,41.8,0,0,1,605.5,734.23ZM592,731.48a9.58,9.58,0,0,0-2.86-7.21,8,8,0,0,0-5.3-2.12,13.73,13.73,0,0,0-5.3,1.69c-2.72,1.42-4.08,3.12-4.08,5.1q0,2.12,4.69,3.61a18.28,18.28,0,0,0,5.3,1.06A17.37,17.37,0,0,0,592,731.48Z"/><path class="cls-2" d="M729.11,720.27q0,12.07-8.76,30H657.51a2.57,2.57,0,0,1-1.22-.32,2.42,2.42,0,0,0-1-.31c-2.44-.14-5.34-1.64-8.67-4.49s-5.2-5.65-5.61-8.43a21.85,21.85,0,0,1-.2-4.17q0-6.45,2.86-16.88,3.26-11.25,6.32-12.92l.81.62c0,1.54-.24,4.41-.71,8.65s-.71,6.56-.71,7a16.2,16.2,0,0,0,1,6.46c.67,1.53,2.62,3.2,5.81,5s5.68,2.71,7.45,2.71h54a5.06,5.06,0,0,0,1.22-2.49q0-3.13-6.93-14.59l8.37-15a30.66,30.66,0,0,1,5.91,8.86Q729.1,715.89,729.11,720.27ZM705,682.35a57,57,0,0,1-8.91,9.86L684.68,686a21.46,21.46,0,0,0-5.93,5.9,90.45,90.45,0,0,1-12.67-6.46q7.55-9.37,9.18-9.37.61,0,5.1,2.92t5.1,2.91c.27,0,1.28-.76,3.06-2.29A53.87,53.87,0,0,1,693,676.1Z"/><path class="cls-2" d="M798.47,750.69h-6.52A153.9,153.9,0,0,1,785.61,765a46.14,46.14,0,0,1-10,13,31.81,31.81,0,0,1-9,5.8,16.15,16.15,0,0,1-5.51.83,20.22,20.22,0,0,1-4.08-.42,149.92,149.92,0,0,1-16.32-5.82q-9.59-3.55-13.47-7.92V769c.28-.28,1.09-.41,2.45-.41.27,0,2.89.65,7.85,2s7.58,2,7.86,2a28.62,28.62,0,0,0,6.93-1q15.3-3.76,29.38-20.63A117.33,117.33,0,0,1,764,748.61a14.16,14.16,0,0,1-6.12-3.13c-2.31-1.81-3.6-3.68-3.88-5.62a12.81,12.81,0,0,1-.2-2.3q0-3.95,3.27-12.28,2.86-7.71,4.9-11.88,4.08-7.71,9.18-11.67a8.54,8.54,0,0,1,5.71-2.07,5,5,0,0,1,1.83.2,13.37,13.37,0,0,1,6.73,6.12,71.69,71.69,0,0,1,8.37,28.26h4.69Zm-18-20.84a55.88,55.88,0,0,0-2.24-5.84,23.41,23.41,0,0,0-3.57-4.9,5.47,5.47,0,0,0-3.76-2q-2.25,0-5.3,3.13-2.25,2.5-2.25,3.74a6.65,6.65,0,0,0,1.42,3.55c1.23,1.95,3.54,3.27,6.94,4a11.08,11.08,0,0,0,3.05.22,9.62,9.62,0,0,0,4.29-.62C779.23,731,779.7,730.55,780.51,729.85Z"/><path class="cls-2" d="M843.14,725.37q0,2.52-3.26,25.32H792.15V734.23h41.41c.14,0,.2-.34.2-1.06q0-.63-2.65-6.32a73.3,73.3,0,0,0-7.55-12.23l8.37-14.56a36.16,36.16,0,0,1,9.79,17A33.55,33.55,0,0,1,843.14,725.37Zm-7.34,49.48a20.76,20.76,0,0,1-2.66,4.37q-5.09,6.89-6.32,6.88-.82,0-12.44-7.08-1.24,1.66-6.54,7.08A117.42,117.42,0,0,1,795,778.4q1.22-1.89,9-11.05c.13-.14.88.34,2.24,1.46,4.62,3.61,7.76,5.42,9.39,5.42.27,0,1.49-1.18,3.68-3.55s3.46-3.54,3.87-3.54Q823.36,767.15,835.8,774.86Z"/><path class="cls-2" d="M915.75,750.69h-10.4q-1,0-4.08-3.55A56.57,56.57,0,0,1,898,758q-9,20.62-21.21,25.42a16.56,16.56,0,0,1-5.3.83,20.6,20.6,0,0,1-5.71-.83,125.54,125.54,0,0,1-18.15-7.5,46.68,46.68,0,0,1-8.57-5.84v-1.45a1.56,1.56,0,0,1,1.42-.62,36.93,36.93,0,0,1,5,2,61.26,61.26,0,0,0,6.83,2.61,16.78,16.78,0,0,0,4.08.42q7.74,0,21.94-11.57t14.17-17.8q0-1-1.83-4-1.22-2.29-8.37-12.7l8.37-14.38q1,1.28,7.95,11.69a26.38,26.38,0,0,0,9.79,9.13,10.07,10.07,0,0,0,4.29.85h3.06Zm-17.14-67.3a60.65,60.65,0,0,1-9.37,8.53,6.31,6.31,0,0,1-3.06,1.46q-.42,0-11.62-9,3.05-3.76,11.22-12.09Z"/><path class="cls-2" d="M958.18,750.69H943.69c-1-.69-1.63-2.21-2-4.59a20.77,20.77,0,0,0-1.23-4.79c-1.36,2-3.66,5.16-6.93,9.39H909.22V734.23H939l-7.34-51.35,12.44-17.61q.82,5.67,1.63,14.05,1.64,16.56,4.49,50.09.21,4.83,5.3,4.82h2.66Z"/><path class="cls-2" d="M1002.23,682.24a21.37,21.37,0,0,1-3.68,5.44q-.61.63-7.95,10.47a3.42,3.42,0,0,0-.41,1.88l3.46,28.89-3.87,20.93a3.75,3.75,0,0,0-1.34.42,3.85,3.85,0,0,1-1.53.42H952V734.23h30.19a27.89,27.89,0,0,0,.61-5q0-3.8-1.83-14.09-1.43-9.44-5.51-28l-5.91-4.83A142.79,142.79,0,0,1,981,662.13a12.81,12.81,0,0,0,1.42,6.7c.55.84,3.4,2.94,8.57,6.28Q996.52,678.89,1002.23,682.24Z"/><path class="cls-2" d="M101.46,588.48c14.84-5.8,27.62-13.9,32.89-30.11,2.22-6.82,1.91-13.75.17-20.62q-13-51.48-26.08-102.94c-.3-1.2-.52-2.42-.87-4.08h17c7,0,14,.18,20.92-.08,3.08-.11,4.07,1,4.69,3.86,3.78,17.29,7.73,34.55,11.63,51.81.19.86.51,1.69.84,2.77h65.65l-12.68-57.95H226.3c5.33,0,10.67.23,16-.08,3.36-.2,4.56,1,5.22,4.19,3.72,17.56,7.64,35.09,11.5,52.62a10.51,10.51,0,0,0,.44,1.2h56.85l-13.89-57.59h19.92c8.42,0,8.39,0,10.36,8.2,3.72,15.49,7.52,31,11.14,46.48.56,2.41,1.44,3.37,4,3.23,4-.22,8.06-.06,12.25-.06,1.38-12.09,3.54-23.66,8.61-34.39a94.73,94.73,0,0,1,8.82-15c4.47-6.18,10.77-9.27,18.62-9.26q53.84.11,107.68,0c1.83,0,2.93.24,3.42,2.47Q518.5,484.49,530,535.76c.16.73.27,1.47.49,2.68h-4.27q-86.94,0-173.88.06c-3,0-5.4-.73-7.31-3.07-2.48-3-5-6-7.53-9.07l-1.41,1c-1.24,2.84-2.64,5.63-3.68,8.55-.73,2-1.86,2.61-3.95,2.6-21.31-.07-42.62,0-63.92-.13a7.43,7.43,0,0,1-4.56-1.95c-3.22-3-6.13-6.35-9.57-10-1.4,3.5-2.63,6-3.39,8.66s-2.13,3.44-4.86,3.42c-21.31-.12-42.61-.07-63.92-.06H173c0,4.69.11,9.09,0,13.47-.22,7.4-1.34,14.66-4.75,21.32-4.36,8.51-11.26,14-20.72,15.74-15.3,2.77-30.67,3.35-46,.27Zm387.47-99.29-6.46-28.39c-16.61,0-32.83-.1-49,.06-5.3.05-10.62.62-15.9,1.19-12.22,1.33-24.32,14.58-24.88,27.14Z"/><path class="cls-2" d="M185.71,559.78H243l5.23,23.3H236.18c-14.06,0-28.12,0-42.18,0-2.26,0-3.35-.51-3.82-2.93C188.89,573.52,187.3,566.9,185.71,559.78Z"/><path class="cls-2" d="M546.72,341.87q8,35.34,15.93,70.67c5.55,24.54,11.18,49.07,16.66,73.63.5,2.23,1.21,3.22,3.66,3.21,18.39-.09,36.78,0,55.18-.06.62,0,1.24-.13,2.4-.25L627.7,430.4h30.87l13,58.93h31c5.33,0,10.66-.13,16,.06a5.18,5.18,0,0,0,5.24-2.83c6.11-10.36,12.11-20.8,18.57-30.94a113.37,113.37,0,0,1,12.71-16.95c7.61-8.08,16.61-9.47,26.74-5,11.06,4.84,19.27,13.31,27.62,21.68,10.73,10.76,21.71,21.27,32.72,31.76a8.14,8.14,0,0,0,5,2.16c13.82.17,27.65.1,41.48.08a18.73,18.73,0,0,0,2.12-.27L858.1,344.77a26.89,26.89,0,0,1,3.09-.38c11.8,0,23.59.06,35.39-.08,2.59,0,3.47,1,4,3.31q22.59,93.85,45.28,187.68c.2.85.3,1.72.53,3.14h-4.66q-95.89,0-191.78.06a9.22,9.22,0,0,1-7.39-2.92c-2.77-2.92-5.89-5.52-9.26-8.61-1.53,3.33-2.72,6.38-4.33,9.2a4.72,4.72,0,0,1-3.31,2.18q-25.3.21-50.61,0a7.09,7.09,0,0,1-3.94-1.75c-3.33-2.69-6.49-5.59-9.74-8.44-.44.55-.79.82-.88,1.15-2.41,8.33-8.27,9.43-16.16,9.31-29.29-.47-58.6-.25-87.9-.11-3.3,0-4.44-1-5.2-4.17Q531.84,453.2,512.17,372.1q-3.65-15.12-7.31-30.23Zm258,147.45.7-1c-7.87-7.82-15.57-15.82-23.68-23.38-3.19-3-6.72-2.61-9.58.19-6.91,6.75-10.24,15.7-15.09,24.23Z"/><path class="cls-2" d="M919.48,343.47h27.66c3.55,0,7.12.24,10.64-.07,3.13-.28,4.39.82,5.1,3.86q8.37,35.61,17,71.15,14.19,58.77,28.43,117.52c.15.6.24,1.22.44,2.32-1.38.07-2.56.19-3.75.19-11.66,0-23.33-.1-35,.08-3,0-4-1-4.71-3.82q-22.53-93.8-45.25-187.56C919.81,346.06,919.71,344.95,919.48,343.47Z"/><path class="cls-2" d="M614.22,386.24c10.14,0,19.51,0,28.88.08a3.12,3.12,0,0,1,2.39,1.68c2.19,9.22,4.21,18.48,6.25,27.74a4.1,4.1,0,0,1-.18,1.24H621.22Z"/></svg>